<?xml version="1.0" encoding="utf-8"?>
<!-- Uploaded to: SVG Repo, www.svgrepo.com, Generator: SVG Repo Mixer Tools -->
<svg width="800px" height="800px" viewBox="0 0 1024 1024" class="icon"  version="1.1" xmlns="http://www.w3.org/2000/svg"><path d="M696.186731 65.865519l-370.374134 1.651527c-55.799702 0.248804-100.809701 45.69293-100.560897 101.457821l3.003055 673.380709c0.248804 55.76489 45.663238 100.80663 101.461917 100.557826l370.375158-1.651527c55.799702-0.248804 100.809701-45.693954 100.560897-101.458845l-3.003056-673.380709c-0.248804-55.763866-45.662214-100.805606-101.46294-100.556802z" fill="#DCE5F7" /><path d="M329.263091 957.643016c-63.527989-0.007167-115.450238-51.691875-115.73795-115.219863l-2.997936-673.385829c-0.136177-30.904955 11.770586-60.019134 33.529173-81.978403s50.771402-34.133265 81.69069-34.269441l370.373111-1.646408c64.052218 0 115.9673 51.684707 116.255011 115.212696l3.005103 673.385829c0.280545 63.808533-51.41133 115.960132-115.22703 116.247844l-370.37311 1.653575h-0.517062zM696.652599 80.594109l-370.775497 1.646408c-23.045611 0.100341-44.674164 9.175036-60.902747 25.555154-16.221415 16.365783-25.094405 38.073176-24.994065 61.111619l2.997936 673.385829c0.21604 47.363911 38.921977 85.896812 86.285888 85.896812v14.726542l0.388053-14.726542 370.37311-1.653575c47.578927-0.21604 86.112851-39.093989 85.903979-86.666773l-3.005104-673.385829c-0.21604-47.35572-38.91481-85.889644-86.271553-85.889645z" fill="#4E6DC4" /><path d="M482.870463 122.70037l67.341961-0.299999c9.30507-0.041979 16.868511 7.454909 16.909466 16.758955 0.041979 9.30507-7.453885 16.868511-16.759979 16.91049l-67.341961 0.299999c-9.304046 0.041979-16.868511-7.454909-16.909466-16.759979-0.040955-9.304046 7.455933-16.867487 16.759979-16.909466z" fill="#4E6DC4" /><path d="M517.604748 877.000784c-23.773593 0.106484-43.127074-19.074984-43.233558-42.847553-0.106484-23.771546 19.076007-43.125026 42.849601-43.23151 23.772569-0.106484 43.127074 19.077031 43.233558 42.847553 0.106484 23.774617-19.077031 43.12605-42.849601 43.23151z" fill="#DCE5F7" /><path d="M517.402019 891.727327c-31.709729 0-57.617099-25.799862-57.753276-57.509591-0.071672-15.430976 5.875054-29.96298 16.739502-40.920601 10.85728-10.958645 25.339114-17.03438 40.770089-17.098885 31.975939 0 57.883309 25.799862 58.019486 57.509591 0.071672 15.430976-5.875054 29.96298-16.739501 40.920601-10.85728 10.958645-25.339114 17.027213-40.77009 17.098885h-0.26621z m0.021502-86.077016c-7.700642 0.028669-14.798215 3.005103-20.119347 8.376406-5.328299 5.371302-8.240229 12.497544-8.204393 20.060985 0.064505 15.545651 12.762731 28.186539 28.301214 28.186539v14.726543l0.136177-14.726543c7.564465-0.035836 14.661014-3.013295 19.982146-8.383573 5.328299-5.371302 8.240229-12.489353 8.204393-20.053818-0.063481-15.545651-12.761707-28.186539-28.30019-28.186539z" fill="#4E6DC4" /><path d="M709.820788 725.982818c0.03686 8.327259-6.671637 15.096165-14.99992 15.133025l-361.618891 1.612619c-8.328283 0.03686-15.098213-6.671637-15.135072-14.998896l-2.284289-512.272353c-0.03686-8.328283 6.672661-15.096165 15.000944-15.134049l361.618891-1.61262c8.328283-0.03686 15.097189 6.672661 15.134049 14.998897l2.284288 512.273377z" fill="#FFFFFF" /><path d="M333.13952 757.452957c-16.358616 0-29.725439-13.309485-29.79711-29.660934L301.056074 215.522741c-0.035836-7.959685 3.027629-15.452477 8.628281-21.104324 5.601677-5.659014 13.071944-8.786984 21.031629-8.82282l361.621962-1.610571c16.487625 0 29.854448 13.309485 29.927144 29.660934l2.279169 512.269281c0.043003 7.952517-3.020462 15.459645-8.628282 21.111492-5.594509 5.651847-13.064777 8.779817-21.031628 8.815653l-361.614795 1.610571h-0.130034z m359.673509-543.676964l-361.967012 1.27269 2.293503 527.678756v-14.726543l361.614796-1.610572-1.941287-512.614331z" fill="#4E6DC4" /><path d="M644.170285 373.660806c0.070648 15.869199-11.603692 28.785512-26.075288 28.850017l-211.64324 0.944022c-14.471595 0.064505-26.260611-12.747372-26.331258-28.616571-0.070648-15.869199 11.603692-28.785512 26.075287-28.850017l211.64324-0.944022c14.471595-0.064505 26.260611 12.747372 26.331259 28.616571zM644.170285 490.719567c0.070648 15.869199-11.603692 28.785512-26.075288 28.850017l-211.64324 0.944022c-14.471595 0.064505-26.260611-12.747372-26.331258-28.61657-0.070648-15.869199 11.603692-28.785512 26.075287-28.850017l211.64324-0.944023c14.471595-0.064505 26.260611 12.748396 26.331259 28.616571z" fill="#4E6DC4" /></svg>