<?xml version="1.0" encoding="utf-8"?>
<!-- Uploaded to: SVG Repo, www.svgrepo.com, Generator: SVG Repo Mixer Tools -->
<svg width="800px" height="800px" viewBox="0 0 1024 1024" class="icon"  version="1.1" xmlns="http://www.w3.org/2000/svg"><path d="M548.230182 807.683747c-52.902107 80.549059-209.583183 147.116963-277.120706 102.760203l-33.185148-21.795447c-67.5365-44.35676-68.69349-214.588958-15.790359-295.136992L501.146816 168.688179C554.048923 88.13912 651.683555 58.799686 719.221079 103.156446l81.523798 53.54306c67.5365 44.35676 79.400259 145.611851 26.498152 226.16091L548.230182 807.683747z" fill="#DCE5F7" /><path d="M255.432768 911.761691l121.512662 6.261058 174.950262-87.841169-326.906107-236.670069-47.12637 168.663605z" fill="#FFFFFF" /><path d="M330.377078 940.252324c-26.407026 0-48.556738-5.751164-65.818421-17.090694l-33.723711-22.148687c-35.852369-23.549362-58.173069-76.993105-61.238581-146.626522-2.821828-64.239589 12.07468-129.507159 38.889213-170.325372l279.012846-424.817188c37.331883-56.844065 98.462956-92.146608 159.551026-92.146608 29.215544 0 57.136897 8.195178 80.757932 23.707041l82.837442 54.408242c75.263762 49.428064 89.917609 160.551362 32.673204 247.718816L564.305182 817.75366c-43.611372 66.396916-150.73435 122.498664-233.928104 122.498664zM647.04945 96.361943c-51.34273 0-103.1073 30.251716-135.087334 78.943607L232.94927 600.122738c-23.613867 35.952709-36.681716 94.56912-34.116883 152.977683 2.607836 59.245077 20.577023 105.393636 48.063225 123.448829L280.619323 898.697938c12.417681 8.152175 29.158206 12.288672 49.756731 12.288671 72.063097 0 171.897036-52.093238 209.465436-109.294639l279.012846-424.824355c48.384725-73.677764 37.495704-166.62505-24.271201-207.192411l-82.837443-54.408242c-18.833347-12.367511-41.204217-18.905019-64.696242-18.905019z" fill="#4E6DC4" /><path d="M803.491961 448.7116c-13.768186 20.963028-37.535636 29.677316-53.08743 19.46406L451.590766 271.922441c-15.55077-10.213256-16.996496-35.486841-3.228311-56.450894 13.768186-20.963028 37.535636-29.677316 53.087431-19.46406l298.813764 196.25322c15.55077 10.21428 16.996496 35.487865 3.228311 56.450893z" fill="#FFFFFF" /><path d="M765.225271 487.083751c-8.302686 0-16.204009-2.307838-22.849025-6.673685L443.558385 284.156846c-22.649367-14.882173-25.90737-48.584383-7.423168-76.720751 12.288672-18.712528 31.637033-30.336698 50.492905-30.336698 8.302686 0 16.204009 2.315005 22.856192 6.680852l298.810693 196.247076c22.649367 14.87603 25.914538 48.577215 7.430336 76.713584-12.296863 18.718672-31.645224 30.342842-50.500072 30.342842zM486.627098 206.364087c-7.352521 0-18.254851 5.301678-26.028189 17.140864-9.960356 15.161694-8.509511 31.236693-0.971667 36.188203l298.810693 196.254244c7.209177 4.723183 22.277697 0.779177 32.823716-15.268178 9.960356-15.161694 8.502344-31.243861 0.971667-36.188203l-298.810693-196.247076c-1.894188-1.244021-4.180524-1.879853-6.795527-1.879854z" fill="#4E6DC4" /><path d="M683.028781 175.82466s-18.946998-12.444302-45.602829-2.830019c-26.654807 9.614283-36.80151 19.901259-36.80151 19.901259" fill="#DCE5F7" /><path d="M600.737069 214.565409c-5.736829 0-11.446014-2.193162-15.704353-6.594846-8.281185-8.566849-8.40917-21.9992-0.035836-30.487209 2.279169-2.307838 15.154527-14.382517 44.983378-25.135361 35.967044-12.96034 62.23175 3.243669 65.103749 5.129666 10.131345 6.65935 12.946006 20.269858 6.294847 30.401203-6.566177 10.002336-19.941191 12.875358-30.015199 6.537507-0.971667-0.549826-11.474683-6.201673-26.493033-0.772009-20.605692 7.423169-28.908378 14.946678-28.986193 15.01835-4.258339 3.930696-9.717696 5.902699-15.14736 5.902699zM522.865471 853.920361c-0.736174 0-1.47849-0.05017-2.228998-0.163822-7.974019-1.221495-13.46102-8.666165-12.261027-16.647351 0.12901-0.928664 5.858672-43.290895-18.991025-59.616747-24.264034-15.925512-64.610236 10.645336-65.024909 10.924856-6.65935 4.522501-15.754523 2.84333-20.327196-3.814996a14.6047 14.6047 0 0 1-2.30067-11.045675 14.552482 14.552482 0 0 1-0.607164-6.887677c0.136177-0.950166 5.858672-43.290895-18.991025-59.60958-24.456525-16.076023-64.595901 10.631001-64.99624 10.896188-6.65935 4.594173-15.761691 2.8935-20.348697-3.757659a14.539172 14.539172 0 0 1-2.550499-9.174013 14.585246 14.585246 0 0 1-2.02934-9.910186c0.057338-0.386005 6.01635-43.169053-18.983858-59.588078-24.29987-15.954181-64.62457 10.652503-65.032077 10.924857-6.65935 4.529669-15.754523 2.850497-20.327195-3.814997-4.558337-6.65935-2.879166-15.740189 3.764826-20.312861 2.293503-1.578831 56.529733-38.260547 97.655111-11.260691 27.543539 18.09103 32.580031 50.985394 32.83805 71.190747 20.063033-8.6805 50.585054-16.390356 76.070584 0.343001 26.750028 17.568848 32.280033 49.09223 32.809382 69.397924 20.077367-8.373334 49.670725-15.232342 74.441582 1.036172 40.753708 26.77153 32.244197 85.959269 31.866383 88.467787-1.10682 7.235798-7.344329 12.422801-14.445998 12.422801zM268.752492 947.457405c-9.617355 14.643608-32.060921 16.895132-50.128402 5.028301-18.06748-11.865807-24.917273-33.35716-15.299918-47.999744l25.329899-38.566689c9.617355-14.643608 32.060921-16.895132 50.128401-5.028301 18.06748 11.865807 24.917273 33.35716 15.299919 47.999744l-25.329899 38.566689z" fill="#4E6DC4" /><path d="M311.357384 722.349049c-4.136497 0-8.31702-1.164158-12.024509-3.601005-10.138512-6.65935-12.953173-20.262691-6.302014-30.394036l232.149615-353.461596c6.652183-10.152847 20.269858-12.946006 30.394036-6.302014 10.138512 6.65935 12.953173 20.262691 6.302014 30.394036L329.726911 712.44603c-4.21636 6.422833-11.224855 9.903019-18.369527 9.903019zM420.309021 793.904299c-4.136497 0-8.31702-1.164158-12.024509-3.601005-10.138512-6.65935-12.953173-20.262691-6.302014-30.394036l232.142448-353.468763c6.652183-10.152847 20.284192-12.946006 30.394036-6.302015 10.138512 6.65935 12.953173 20.262691 6.302014 30.394036L438.677524 784.00128c-4.215336 6.423857-11.223831 9.903019-18.368503 9.903019z" fill="#4E6DC4" /></svg>