<?xml version="1.0" encoding="utf-8"?>
<!-- Uploaded to: SVG Repo, www.svgrepo.com, Generator: SVG Repo Mixer Tools -->
<svg width="800px" height="800px" viewBox="0 0 1024 1024" class="icon"  version="1.1" xmlns="http://www.w3.org/2000/svg"><path d="M169.040395 107.816149c0-22.885885 18.117651-41.439711 40.463949-41.439711h602.350712c22.351417 0 40.462924 18.55485 40.462924 41.439711v809.274865c0 22.885885-18.111508 41.441759-40.462924 41.441758H209.504344c-22.346297 0-40.463948-18.555874-40.463949-41.441758V107.816149z" fill="#DCE5F7" /><path d="M811.85608 90.911802c8.781864 0 15.926536 7.582895 15.926536 16.903323v809.274865c0 9.321452-7.144672 16.905371-15.926536 16.905371h-602.351736c-8.782888 0-15.92756-7.583919-15.927561-16.905371V107.816149c0-9.320428 7.144672-16.903323 15.927561-16.903323h602.351736m0-24.537412h-602.351736c-22.346297 0-40.463948 18.55485-40.463949 41.439711v809.274865c0 22.885885 18.117651 41.441759 40.463949 41.441758h602.351736c22.350393 0 40.462924-18.555874 40.462924-41.441758V107.816149c0-22.885885-18.112531-41.440735-40.462924-41.440735z" fill="#4E6DC4" /><path d="M487.302862 297.30763h258.988721c17.922089 0 32.453069 14.189003 32.45307 31.688226v496.731823c0 17.50332-14.529957 31.687203-32.45307 31.687203H275.067816c-17.922089 0-32.454093-14.183883-32.454093-31.687203V328.995856c0-17.500248 14.532004-31.688227 32.454093-31.688226h212.235046z" fill="#FFFFFF" /><path d="M746.291583 321.844017c4.364823 0 7.916681 3.207833 7.916682 7.151839v496.731823c0 3.942982-3.551858 7.150815-7.916682 7.150815H275.067816c-4.365847 0-7.916681-3.207833-7.916681-7.150815V328.995856c0-3.944006 3.551858-7.151839 7.916681-7.151839h471.223767m0-24.536387H275.067816c-17.922089 0-32.453069 14.189003-32.453069 31.688226v496.731823c0 17.50332 14.532004 31.687203 32.453069 31.687203h471.223767c17.922089 0 32.453069-14.183883 32.45307-31.687203V328.995856c-0.001024-17.499224-14.530981-31.688227-32.45307-31.688226zM428.061881 160.487881h321.554258c10.44363 0 18.911162 0.389076 18.911162 11.675365v25.589966c0 6.449454-8.467532 11.675364-18.911162 11.675364H271.741213c-10.44363 0-18.912186-5.225911-18.912186-11.675364v-25.589966c0-10.832707 8.468556-11.675364 18.912186-11.675365h156.320668z" fill="#4E6DC4" /><path d="M625.336938 750.378934s-32.137713-4.338202-34.387188-13.176381c0 0-1.227639-0.983954-0.320476-11.24738 1.927976-21.853808 16.228582-32.137713 22.01251-40.493641 5.784952-8.355928 6.268226-17.996832 6.268226-17.996832 0-0.721839-0.057338-1.470299-0.273377-2.16347-0.462796-1.481562-1.539924-2.26893-2.482922-3.397251-1.126274-1.347433-1.255283-2.918073-1.004432-4.604413 0.478154-3.223191 0.858016-6.428976 1.031053-9.686979 0.366551-6.831363 0.369623-13.881837-0.806822-20.641528-0.161774-1.355624-0.459725-2.702033-0.809893-4.020797-1.164158-4.410898-3.099301-8.714288-6.038876-12.233382 0 0-12.408466-13.896172-50.15707-16.789672-5.042635-0.387029-10.121106-0.187371-15.171933 0.077815-2.243333 0.117747-5.952869 0.224231-6.368567 2.388725-0.459725 2.399987 1.834803 4.056634 1.156991 6.313277-0.181228 0.598973-0.484298 1.163134-0.817061 1.689411-1.184635 1.890092-2.877118 3.465852-4.56448 4.898267 0 0-8.999952 7.872654-9.320429 17.675332-1.432416 8.231014-1.29931 21.370535 0.207849 29.550355 0.396244 2.154255 1.017742 4.187691-1.055626 6.102356-1.677124 1.548115-2.687699 2.430704-2.687699 4.839906 0 0 0.483274 9.640904 6.266179 17.996833 5.784952 8.355928 20.086582 18.639832 22.014558 40.49364 0.905115 10.263426-0.320476 11.246356-0.320476 11.246357-2.2505 8.838178-34.387189 13.17638-34.387189 13.17638-0.965524 0.167917-1.790775 0.401363-2.710224 0.590782-0.880541-0.189419-1.664838-0.419793-2.586335-0.590782 0 0-32.138736-4.338202-34.387188-13.17638 0 0-1.227639-0.983954-0.320476-11.247381 1.927976-21.853808 16.228582-32.137713 22.01251-40.49364 5.784952-8.355928 6.268226-17.996832 6.268226-17.996833 0-0.721839-0.057338-1.470299-0.273377-2.163469-0.462796-1.481562-1.539924-2.26893-2.482922-3.397252-1.126274-1.347433-1.255283-2.918073-1.004432-4.604412 0.478154-3.223191 0.858016-6.428976 1.031053-9.686979 0.366551-6.831363 0.369623-13.881837-0.806822-20.641528-0.161774-1.355624-0.459725-2.702033-0.809893-4.020798-1.163134-4.410898-3.099301-8.714288-6.038876-12.233382 0 0-12.408466-13.896172-50.15707-16.789672-5.042635-0.387029-10.121106-0.187371-15.171933 0.077816-2.243333 0.117747-5.952869 0.224231-6.368567 2.388724-0.459725 2.399987 1.834803 4.056634 1.156991 6.313277-0.181228 0.598973-0.484298 1.163134-0.817061 1.689411-1.184635 1.890092-2.877118 3.465852-4.56448 4.898267 0 0-8.999952 7.872654-9.320428 17.675333-1.432416 8.231014-1.29931 21.370535 0.207848 29.550354 0.396244 2.154255 1.017742 4.187691-1.055626 6.102357-1.677124 1.548115-2.687699 2.430704-2.687698 4.839906 0 0 0.483274 9.640904 6.266178 17.996832 5.784952 8.355928 20.086582 18.639832 22.014558 40.493641 0.905115 10.263426-0.320476 11.246356-0.320476 11.246356-2.2505 8.838178-34.387189 13.17638-34.387189 13.17638-42.21684 7.338186-39.903883 36.003904-39.903882 36.003904v5.131713h106.573151l7.883917-0.061433h2.855617v0.061433h106.573151l7.883917-0.061433h53.691523l-4.428304 0.060409h28.103604v-5.131713c0.001024 0.008191 2.78804-28.079031-39.901835-35.996736zM697.53826 398.080471c0 12.458637-8.900635 22.559265-19.880782 22.559265H343.700897c-10.980146 0-19.880781-10.099605-19.880781-22.559265 0-12.458637 8.900635-22.559265 19.880781-22.559265h333.957605c10.979122 0 19.879757 10.100629 19.879758 22.559265zM553.557458 487.967364c0 12.458637-9.414626 22.559265-21.028557 22.559265H344.847649c-11.613931 0-21.028557-10.099605-21.028557-22.559265 0-12.458637 9.414626-22.559265 21.028557-22.559266h187.681252c11.613931 0.001024 21.028557 10.100629 21.028557 22.559266z" fill="#4E6DC4" /></svg>