<?xml version="1.0" encoding="utf-8"?>
<!-- Uploaded to: SVG Repo, www.svgrepo.com, Generator: SVG Repo Mixer Tools -->
<svg width="800px" height="800px" viewBox="0 0 1024 1024" class="icon"  version="1.1" xmlns="http://www.w3.org/2000/svg"><path d="M942.009311 763.650535c-0.169965 28.216232-22.631961 50.954677-50.168333 50.788808l-767.896588-0.254948c-27.537396-0.165869-49.721919-23.17462-49.551954-51.389828l3.212952-501.230774c0.169965-28.216232 22.631961-50.954677 50.168333-50.788808l627.252628-0.593853c50.8185 46.666645 117.489817 112.518854 189.454621 175.130465l-2.471659 378.338938z" fill="#DCE5F7" /><path d="M892.133809 825.640648h-0.361432l-767.836178-0.251876c-16.420049-0.098293-31.751708-6.705425-43.222295-18.608091-11.398915-11.825876-17.623114-27.468795-17.524821-44.05369l3.210904-501.246133c0.207849-34.131217 27.605996-61.906155 61.07476-61.906154l627.537268-0.590782h0.011262c2.80647 0 5.508503 1.050506 7.575728 2.953909 17.197178 15.78524 36.198442 33.759547 56.606524 53.066952 39.906954 37.751676 85.130945 80.536772 132.62489 121.854641a11.224855 11.224855 0 0 1 3.850833 8.53306l-2.472683 378.330747c-0.206825 34.14248-27.599853 61.917417-61.07476 61.917417zM127.781912 221.979362c-21.496472 0-38.846209 17.78796-38.977266 39.64484l-3.210904 501.246133c-0.065529 10.698578 3.932744 20.773609 11.251475 28.365719 7.241941 7.515318 16.891036 11.683555 27.162654 11.749084l767.836178 0.251875 0.28976 11.20233v-11.20233c21.189307 0 38.540068-17.78796 38.671125-39.656102l2.439919-373.200058c-46.415793-40.563265-90.458221-82.232326-129.435488-119.098341-19.056554-18.028573-36.882397-34.897084-53.149887-49.894955l-622.877566 0.591805z" fill="#4E6DC4" /><path d="M867.963972 708.451853c-0.132081 21.805686-17.914922 39.375558-39.720607 39.243477l-640.078839-0.285664c-21.805686-0.132081-39.375558-17.914922-39.244501-39.720607l2.487017-387.355272c0.132081-21.805686 17.914922-39.375558 39.720608-39.244501l528.70776-0.386005c40.24586 36.070456 93.048651 86.968819 150.04118 135.364807l-1.912618 292.383765z" fill="#FFFFFF" /><path d="M828.482954 758.898683h-0.306142l-640.019454-0.28464c-13.598221-0.076791-26.293375-5.425568-35.810389-15.063401s-14.708113-22.393396-14.626202-35.925064l2.482922-387.366535c0.169965-27.774937 22.902267-50.376182 50.682324-50.376182l528.945302-0.382933h0.005119c2.756299 0 5.420449 1.017742 7.477435 2.855616 13.60334 12.197546 28.633977 26.079383 44.775529 40.978963 31.609388 29.186875 67.43104 62.256323 105.040395 94.189258a11.246356 11.246356 0 0 1 3.949126 8.620091l-1.914665 292.379669c-0.168941 27.774937-22.900219 50.375158-50.6813 50.375158zM191.132769 292.286496c-15.747356 0-28.431248 12.613243-28.524421 28.114867l-2.482922 387.366535c-0.049146 7.548083 2.849473 14.658966 8.160366 20.041531 5.310893 5.371302 12.394132 8.357976 19.942214 8.402003l640.019454 0.28464 0.235494 11.20233v-11.20233c15.501624 0 28.185515-12.613243 28.278689-28.114867l1.881901-287.172188c-36.499464-31.167069-71.095525-63.110244-101.74758-91.410434-14.806406-13.673989-28.671861-26.473579-41.345514-37.893996l-524.417681 0.381909z" fill="#4E6DC4" /><path d="M807.309005 386.913978c0 9.500632-7.701665 17.201273-17.201273 17.201273H246.023261c-9.500632 0-17.201273-7.701665-17.201273-17.201273 0-9.500632 7.701665-17.201273 17.201273-17.201274h544.084471c9.499608-0.001024 17.201273 7.700642 17.201273 17.201274zM618.091926 489.173501c0 9.500632-7.701665 17.201273-17.201274 17.201273H246.023261c-9.500632 0-17.201273-7.701665-17.201273-17.201273 0-9.500632 7.701665-17.201273 17.201273-17.201274H600.890652c9.500632 0 17.201273 7.700642 17.201274 17.201274z" fill="#4E6DC4" /><path d="M943.440703 389.646728c2.741965 13.707777 0.684979 22.618651-25.359592 23.30363l-177.732158-0.295903c-10.444654-0.233446-18.711504-9.353192-18.465772-20.370199l3.58667-160.662966c0.245732-11.017006 8.922137-28.405651 30.169805-18.810821l187.801047 176.836259z" fill="#BED3F4" /><path d="M918.077015 424.151663h-0.011262l-177.733182-0.294879c-8.39074-0.186347-15.950086-3.664486-21.529237-9.823156-5.420449-5.973347-8.302686-13.794807-8.117363-21.9992l3.587694-160.656822c0.350169-15.775001 10.955573-32.555458 29.925097-32.555458 5.097925 0 10.496872 1.279857 16.048378 3.785304a11.209497 11.209497 0 0 1 3.068585 2.045723l187.803094 176.836258a11.218712 11.218712 0 0 1 3.304078 5.962084c1.531732 7.668901 2.472683 17.480794-3.89486 25.455837-5.868911 7.351497-15.780121 10.819396-32.156143 11.245333l-0.294879-0.001024zM744.199786 221.223735c-6.864127 0-7.526581 10.546019-7.531701 10.654551l-3.587694 160.656822c-0.054266 2.450158 0.770986 4.736494 2.32422 6.454573 0.815013 0.896924 2.564833 2.407154 5.191098 2.46142l177.34513 0.294879c12.722799-0.350169 15.063401-2.800326 15.085926-2.822851 0.005119-0.044027 0.317404-0.875422-0.016382-3.708513l-183.570352-172.852321c-1.975075-0.744365-3.763802-1.13856-5.240245-1.13856zM296.985106 601.545939h-51.236246c-6.388021 0-11.565809 5.177788-11.565809 11.565808v51.235222c0 6.389044 5.177788 11.566833 11.565809 11.566833h51.236246c6.388021 0 11.565809-5.178812 11.565808-11.565809v-51.236246c0-6.389044-5.177788-11.566833-11.565808-11.566832z m-33.335659 57.236213l-19.006383-19.218327 8.121458-7.186651 11.267858 11.437823 27.201562-25.138433 6.85696 7.960709-34.441455 32.144879zM412.34217 601.360616h-51.235222c-6.388021 0-11.567856 5.177788-11.567856 11.566832v51.236246c0 6.388021 5.178812 11.565809 11.567856 11.565808h51.235222c6.388021 0 11.566833-5.177788 11.566832-11.565808v-51.236246c0-6.388021-5.177788-11.566833-11.566832-11.566832z m-4.130354 51.987777a6.6829 6.6829 0 0 1-6.683923 6.682899h-29.605644a6.683923 6.683923 0 0 1-6.684948-6.682899v-29.606668a6.683923 6.683923 0 0 1 6.684948-6.6829h29.605644a6.6829 6.6829 0 0 1 6.683923 6.6829v29.606668zM529.161342 601.360616h-51.235222c-6.388021 0-11.567856 5.177788-11.567856 11.566832v51.236246c0 6.388021 5.178812 11.565809 11.567856 11.565808h51.235222c6.389044 0 11.566833-5.177788 11.566832-11.565808v-51.236246c-0.001024-6.388021-5.178812-11.566833-11.566832-11.566832z m-4.131377 51.987777a6.6829 6.6829 0 0 1-6.683924 6.682899h-29.605644a6.683923 6.683923 0 0 1-6.684947-6.682899v-29.606668a6.683923 6.683923 0 0 1 6.684947-6.6829h29.605644a6.6829 6.6829 0 0 1 6.683924 6.6829v29.606668zM643.059369 601.360616h-51.235221c-6.389044 0-11.567856 5.177788-11.567857 11.566832v51.236246c0 6.388021 5.178812 11.565809 11.567857 11.565808h51.235221c6.389044 0 11.566833-5.177788 11.566833-11.565808v-51.236246c-0.001024-6.388021-5.178812-11.566833-11.566833-11.566832z m-4.131377 51.987777a6.6829 6.6829 0 0 1-6.683923 6.682899h-29.605645a6.683923 6.683923 0 0 1-6.684947-6.682899v-29.606668a6.683923 6.683923 0 0 1 6.684947-6.6829h29.605645a6.6829 6.6829 0 0 1 6.683923 6.6829v29.606668zM759.877518 601.360616h-51.235222c-6.389044 0-11.567856 5.177788-11.567856 11.566832v51.236246c0 6.388021 5.178812 11.565809 11.567856 11.565808h51.235222c6.389044 0 11.566833-5.177788 11.566832-11.565808v-51.236246c-0.001024-6.388021-5.178812-11.566833-11.566832-11.566832z m-4.131378 51.987777a6.6829 6.6829 0 0 1-6.683923 6.682899H719.456573a6.683923 6.683923 0 0 1-6.684947-6.682899v-29.606668a6.683923 6.683923 0 0 1 6.684947-6.6829h29.605644a6.6829 6.6829 0 0 1 6.683923 6.6829v29.606668z" fill="#4E6DC4" /></svg>