<svg xmlns="http://www.w3.org/2000/svg" version="1.1" xmlns:xlink="http://www.w3.org/1999/xlink" xmlns:svgjs="http://svgjs.com/svgjs" width="1440" height="250" preserveAspectRatio="none" viewBox="0 0 1440 250"><g mask="url(&quot;#SvgjsMask1449&quot;)" fill="none"><path d="M1560 250L0 250 L0 125.74Q44.94 98.68, 72 143.62Q140.93 92.55, 192 161.47Q211.59 109.06, 264 128.66Q306.43 99.09, 336 141.52Q382.07 115.59, 408 161.67Q452.82 86.49, 528 131.3Q571.96 103.26, 600 147.23Q643.22 118.45, 672 161.67Q690.36 108.03, 744 126.39Q790.78 101.18, 816 147.96Q886 97.96, 936 167.96Q977.27 89.23, 1056 130.5Q1100.63 103.13, 1128 147.76Q1195.33 95.09, 1248 162.42Q1293.32 87.74, 1368 133.05Q1412.93 105.98, 1440 150.91Q1507.91 98.82, 1560 166.73z" fill="#182f5d"></path><path d="M1488 250L0 250 L0 164.13Q34.75 126.88, 72 161.62Q121.62 139.24, 144 188.85Q173.13 145.97, 216 175.1Q268.73 107.83, 336 160.56Q390.96 143.52, 408 198.48Q454.56 125.05, 528 171.61Q570.99 142.6, 600 185.58Q622.96 136.54, 672 159.49Q715.92 131.41, 744 175.33Q809.52 120.86, 864 186.38Q930.33 132.71, 984 199.04Q1005.46 148.5, 1056 169.96Q1122.03 115.99, 1176 182.01Q1244.79 130.8, 1296 199.59Q1339.93 123.53, 1416 167.46Q1461.96 141.43, 1488 187.39z" fill="#25467d"></path><path d="M1536 250L0 250 L0 220.19Q57.43 157.63, 120 215.06Q166.51 141.57, 240 188.08Q308.09 136.17, 360 204.26Q431.43 155.69, 480 227.12Q496.25 171.38, 552 187.63Q596.61 160.24, 624 204.84Q669.85 178.69, 696 224.53Q716.81 173.34, 768 194.16Q837.27 143.44, 888 212.71Q931.02 183.74, 960 226.76Q980.63 175.39, 1032 196.02Q1097.45 141.47, 1152 206.92Q1198.57 181.49, 1224 228.05Q1265.16 149.21, 1344 190.37Q1387.8 162.17, 1416 205.96Q1481.13 151.09, 1536 216.23z" fill="#356cb1"></path><path d="M1536 250L0 250 L0 245.41Q48.46 173.87, 120 222.32Q197.99 180.31, 240 258.3Q294.75 193.06, 360 247.81Q388.69 204.5, 432 233.2Q506.25 187.44, 552 261.69Q568.1 205.79, 624 221.89Q670.19 196.08, 696 242.28Q739.9 214.18, 768 258.08Q812.1 182.18, 888 226.28Q931.96 198.24, 960 242.19Q1028.35 190.54, 1080 258.89Q1102 208.89, 1152 230.89Q1194.23 201.13, 1224 243.36Q1293.24 192.61, 1344 261.85Q1360.81 206.66, 1416 223.46Q1483.21 170.68, 1536 237.89z" fill="rgba(29, 149, 241, 1)"></path></g><defs><mask id="SvgjsMask1449"><rect width="1440" height="250" fill="#ffffff"></rect></mask></defs></svg>